# xmcd
#
# Track frame offsets:
#	150
#	14788
#	27579
#	38501
#	55861
#	73545
#	91143
#	107442
#	122282
#	137978
#	149632
#	164515
#	179589
#	191629
#	206610
#	218995
#	235945
#
# Disc length: 3341 seconds
#
# Revision: 0
# Processed by: cddbd v1.5.2PL0 Copyright (c) Steve Scherf et al.
# Submitted via: audiograbber 1.83.01
#
DISCID=fc0d0b11
DTITLE=Topi Sorsakoski and Kulkukoirat - Jossakin... Suomessa - Live
DYEAR=2005
DGENRE=Iskelmä
TTITLE0=Ykkönen (Number One)
TTITLE1=Kirje
TTITLE2=The Lonely Bull
TTITLE3=Haavekuva
TTITLE4=Luoksein tuu (Only You)
TTITLE5=Eeva
TTITLE6=Ajomies
TTITLE7=Kyyneleet
TTITLE8=Luotu lähtemaan
TTITLE9=Kaipaan sua
TTITLE10=Kaksi kitaraa
TTITLE11=Liisan koira (Walking The Dog)
TTITLE12=Little Sister
TTITLE13=Oi kuinka saatoitkaan
TTITLE14=Itämaista rakkautta
TTITLE15=Elokuun viimeinen päivä
TTITLE16=Sapelitanssi
EXTD=
EXTT0=
EXTT1=
EXTT2=
EXTT3=
EXTT4=
EXTT5=
EXTT6=
EXTT7=
EXTT8=
EXTT9=
EXTT10=
EXTT11=
EXTT12=
EXTT13=
EXTT14=
EXTT15=
EXTT16=
PLAYORDER=
